HIERARCHY
ROOT mixamorig:Hips
{
	OFFSET -0.000008 104.274872 1.554316
	CHANNELS 6 Xposition Yposition Zposition Xrotation Yrotation Zrotation
	JOINT mixamorig:Spine
	{
		OFFSET -0.000005 10.181595 0.131519
		CHANNELS 6 Xposition Yposition Zposition Xrotation Yrotation Zrotation
		JOINT mixamorig:Spine1
		{
			OFFSET -0.000000 9.893959 -1.470707
			CHANNELS 6 Xposition Yposition Zposition Xrotation Yrotation Zrotation
			JOINT mixamorig:Spine2
			{
				OFFSET -0.000000 9.220757 -1.370641
				CHANNELS 6 Xposition Yposition Zposition Xrotation Yrotation Zrotation
				JOINT mixamorig:Neck
				{
					OFFSET 0.000001 16.740417 -2.049036
					CHANNELS 6 Xposition Yposition Zposition Xrotation Yrotation Zrotation
					JOINT mixamorig:Head
					{
						OFFSET 0.000000 9.617874 1.685006
						CHANNELS 6 Xposition Yposition Zposition Xrotation Yrotation Zrotation
						JOINT mixamorig:HeadTop_End
						{
							OFFSET 0.000002 22.037354 7.501101
							CHANNELS 6 Xposition Yposition Zposition Xrotation Yrotation Zrotation
							End Site
							{
								OFFSET 0.000168 2310.654297 -282.823242
							}
						}
					}
				}
				JOINT mixamorig:RightShoulder
				{
					OFFSET -4.569970 11.014908 -2.160885
					CHANNELS 6 Xposition Yposition Zposition Xrotation Yrotation Zrotation
					JOINT mixamorig:RightArm
					{
						OFFSET -10.592851 -0.524811 -2.232101
						CHANNELS 6 Xposition Yposition Zposition Xrotation Yrotation Zrotation
						JOINT mixamorig:RightForeArm
						{
							OFFSET -27.841511 0.000031 -0.000004
							CHANNELS 6 Xposition Yposition Zposition Xrotation Yrotation Zrotation
							JOINT mixamorig:RightHand
							{
								OFFSET -28.328831 -0.000015 0.000015
								CHANNELS 6 Xposition Yposition Zposition Xrotation Yrotation Zrotation
								JOINT mixamorig:RightHandThumb1
								{
									OFFSET -2.464806 -1.573990 2.681852
									CHANNELS 6 Xposition Yposition Zposition Xrotation Yrotation Zrotation
									JOINT mixamorig:RightHandThumb2
									{
										OFFSET -3.215179 -1.872803 1.924282
										CHANNELS 6 Xposition Yposition Zposition Xrotation Yrotation Zrotation
										JOINT mixamorig:RightHandThumb3
										{
											OFFSET -2.654831 -1.527969 1.512609
											CHANNELS 6 Xposition Yposition Zposition Xrotation Yrotation Zrotation
											JOINT mixamorig:RightHandThumb4
											{
												OFFSET -2.018814 -1.152008 1.108052
												CHANNELS 6 Xposition Yposition Zposition Xrotation Yrotation Zrotation
												End Site
												{
													OFFSET -188.809540 -114.533607 132.431396
												}
											}
										}
									}
								}
								JOINT mixamorig:RightHandIndex1
								{
									OFFSET -9.108284 -0.517868 2.259835
									CHANNELS 6 Xposition Yposition Zposition Xrotation Yrotation Zrotation
									JOINT mixamorig:RightHandIndex2
									{
										OFFSET -3.699989 0.000000 0.001215
										CHANNELS 6 Xposition Yposition Zposition Xrotation Yrotation Zrotation
										JOINT mixamorig:RightHandIndex3
										{
											OFFSET -2.850006 0.000031 -0.000522
											CHANNELS 6 Xposition Yposition Zposition Xrotation Yrotation Zrotation
											JOINT mixamorig:RightHandIndex4
											{
												OFFSET -2.772186 -0.000015 -0.000020
												CHANNELS 6 Xposition Yposition Zposition Xrotation Yrotation Zrotation
												End Site
												{
													OFFSET -277.218445 0.000000 -0.050231
												}
											}
										}
									}
								}
								JOINT mixamorig:RightHandMiddle1
								{
									OFFSET -9.532516 -0.000031 -0.000023
									CHANNELS 6 Xposition Yposition Zposition Xrotation Yrotation Zrotation
									JOINT mixamorig:RightHandMiddle2
									{
										OFFSET -3.700005 -0.000015 0.003713
										CHANNELS 6 Xposition Yposition Zposition Xrotation Yrotation Zrotation
										JOINT mixamorig:RightHandMiddle3
										{
											OFFSET -2.949974 0.000015 -0.002054
											CHANNELS 6 Xposition Yposition Zposition Xrotation Yrotation Zrotation
											JOINT mixamorig:RightHandMiddle4
											{
												OFFSET -2.946640 0.000000 -0.000156
												CHANNELS 6 Xposition Yposition Zposition Xrotation Yrotation Zrotation
												End Site
												{
													OFFSET -294.664337 0.000000 -0.113670
												}
											}
										}
									}
								}
								JOINT mixamorig:RightHandRing1
								{
									OFFSET -9.103600 -0.043076 -1.865134
									CHANNELS 6 Xposition Yposition Zposition Xrotation Yrotation Zrotation
									JOINT mixamorig:RightHandRing2
									{
										OFFSET -3.379288 0.000000 -0.001055
										CHANNELS 6 Xposition Yposition Zposition Xrotation Yrotation Zrotation
										JOINT mixamorig:RightHandRing3
										{
											OFFSET -2.889687 -0.000015 0.000379
											CHANNELS 6 Xposition Yposition Zposition Xrotation Yrotation Zrotation
											JOINT mixamorig:RightHandRing4
											{
												OFFSET -2.638809 -0.000015 0.000941
												CHANNELS 6 Xposition Yposition Zposition Xrotation Yrotation Zrotation
												End Site
												{
													OFFSET -263.880371 0.000000 0.516020
												}
											}
										}
									}
								}
								JOINT mixamorig:RightHandPinky1
								{
									OFFSET -8.076683 -0.486710 -3.806280
									CHANNELS 6 Xposition Yposition Zposition Xrotation Yrotation Zrotation
									JOINT mixamorig:RightHandPinky2
									{
										OFFSET -3.600014 -0.000015 -0.003747
										CHANNELS 6 Xposition Yposition Zposition Xrotation Yrotation Zrotation
										JOINT mixamorig:RightHandPinky3
										{
											OFFSET -2.099983 0.000000 -0.005739
											CHANNELS 6 Xposition Yposition Zposition Xrotation Yrotation Zrotation
											JOINT mixamorig:RightHandPinky4
											{
												OFFSET -2.115768 -0.000031 -0.003680
												CHANNELS 6 Xposition Yposition Zposition Xrotation Yrotation Zrotation
												End Site
												{
													OFFSET -211.577087 0.000000 -0.350686
												}
											}
										}
									}
								}
							}
						}
					}
				}
				JOINT mixamorig:LeftShoulder
				{
					OFFSET 4.570447 11.014725 -2.160855
					CHANNELS 6 Xposition Yposition Zposition Xrotation Yrotation Zrotation
					JOINT mixamorig:LeftArm
					{
						OFFSET 10.592371 -0.524597 -2.232119
						CHANNELS 6 Xposition Yposition Zposition Xrotation Yrotation Zrotation
						JOINT mixamorig:LeftForeArm
						{
							OFFSET 27.841532 -0.000031 0.000026
							CHANNELS 6 Xposition Yposition Zposition Xrotation Yrotation Zrotation
							JOINT mixamorig:LeftHand
							{
								OFFSET 28.328846 -0.000061 0.000022
								CHANNELS 6 Xposition Yposition Zposition Xrotation Yrotation Zrotation
								JOINT mixamorig:LeftHandThumb1
								{
									OFFSET 2.466141 -1.576172 2.681732
									CHANNELS 6 Xposition Yposition Zposition Xrotation Yrotation Zrotation
									JOINT mixamorig:LeftHandThumb2
									{
										OFFSET 3.217812 -1.872070 1.916482
										CHANNELS 6 Xposition Yposition Zposition Xrotation Yrotation Zrotation
										JOINT mixamorig:LeftHandThumb3
										{
											OFFSET 2.656029 -1.528778 1.514513
											CHANNELS 6 Xposition Yposition Zposition Xrotation Yrotation Zrotation
											JOINT mixamorig:LeftHandThumb4
											{
												OFFSET 2.020889 -1.154053 1.115139
												CHANNELS 6 Xposition Yposition Zposition Xrotation Yrotation Zrotation
												End Site
												{
													OFFSET 190.885437 -115.081749 130.048782
												}
											}
										}
									}
								}
								JOINT mixamorig:LeftHandIndex1
								{
									OFFSET 9.109314 -0.518021 2.259871
									CHANNELS 6 Xposition Yposition Zposition Xrotation Yrotation Zrotation
									JOINT mixamorig:LeftHandIndex2
									{
										OFFSET 3.699989 0.000000 -0.000322
										CHANNELS 6 Xposition Yposition Zposition Xrotation Yrotation Zrotation
										JOINT mixamorig:LeftHandIndex3
										{
											OFFSET 2.850006 0.000000 0.000352
											CHANNELS 6 Xposition Yposition Zposition Xrotation Yrotation Zrotation
											JOINT mixamorig:LeftHandIndex4
											{
												OFFSET 2.774864 -0.000031 -0.000027
												CHANNELS 6 Xposition Yposition Zposition Xrotation Yrotation Zrotation
												End Site
												{
													OFFSET 277.486267 0.000000 -0.009857
												}
											}
										}
									}
								}
								JOINT mixamorig:LeftHandMiddle1
								{
									OFFSET 9.533394 0.000061 0.000044
									CHANNELS 6 Xposition Yposition Zposition Xrotation Yrotation Zrotation
									JOINT mixamorig:LeftHandMiddle2
									{
										OFFSET 3.699989 -0.000015 -0.000231
										CHANNELS 6 Xposition Yposition Zposition Xrotation Yrotation Zrotation
										JOINT mixamorig:LeftHandMiddle3
										{
											OFFSET 2.949997 -0.000015 -0.000059
											CHANNELS 6 Xposition Yposition Zposition Xrotation Yrotation Zrotation
											JOINT mixamorig:LeftHandMiddle4
											{
												OFFSET 2.952896 0.000031 0.000063
												CHANNELS 6 Xposition Yposition Zposition Xrotation Yrotation Zrotation
												End Site
												{
													OFFSET 295.289337 0.000000 0.022810
												}
											}
										}
									}
								}
								JOINT mixamorig:LeftHandRing1
								{
									OFFSET 9.104523 -0.042999 -1.865074
									CHANNELS 6 Xposition Yposition Zposition Xrotation Yrotation Zrotation
									JOINT mixamorig:LeftHandRing2
									{
										OFFSET 3.150009 -0.000031 0.000043
										CHANNELS 6 Xposition Yposition Zposition Xrotation Yrotation Zrotation
										JOINT mixamorig:LeftHandRing3
										{
											OFFSET 2.949982 -0.000015 0.000040
											CHANNELS 6 Xposition Yposition Zposition Xrotation Yrotation Zrotation
											JOINT mixamorig:LeftHandRing4
											{
												OFFSET 2.644348 0.000000 0.000057
												CHANNELS 6 Xposition Yposition Zposition Xrotation Yrotation Zrotation
												End Site
												{
													OFFSET 264.434631 0.000000 0.012105
												}
											}
										}
									}
								}
								JOINT mixamorig:LeftHandPinky1
								{
									OFFSET 8.077789 -0.486847 -3.806259
									CHANNELS 6 Xposition Yposition Zposition Xrotation Yrotation Zrotation
									JOINT mixamorig:LeftHandPinky2
									{
										OFFSET 3.599953 0.000031 0.014727
										CHANNELS 6 Xposition Yposition Zposition Xrotation Yrotation Zrotation
										JOINT mixamorig:LeftHandPinky3
										{
											OFFSET 2.100021 0.000015 0.007705
											CHANNELS 6 Xposition Yposition Zposition Xrotation Yrotation Zrotation
											JOINT mixamorig:LeftHandPinky4
											{
												OFFSET 2.125504 0.000031 0.007517
												CHANNELS 6 Xposition Yposition Zposition Xrotation Yrotation Zrotation
												End Site
												{
													OFFSET 212.550781 0.000000 0.625752
												}
											}
										}
									}
								}
							}
						}
					}
				}
			}
		}
	}
	JOINT mixamorig:RightUpLeg
	{
		OFFSET -8.207787 -6.751648 -1.599560
		CHANNELS 6 Xposition Yposition Zposition Xrotation Yrotation Zrotation
		JOINT mixamorig:RightLeg
		{
			OFFSET -0.000002 -44.370117 0.345942
			CHANNELS 6 Xposition Yposition Zposition Xrotation Yrotation Zrotation
			JOINT mixamorig:RightFoot
			{
				OFFSET 0.000003 -44.423679 -3.043532
				CHANNELS 6 Xposition Yposition Zposition Xrotation Yrotation Zrotation
				JOINT mixamorig:RightToeBase
				{
					OFFSET -0.000002 -8.728671 10.710558
					CHANNELS 6 Xposition Yposition Zposition Xrotation Yrotation Zrotation
					JOINT mixamorig:RightToe_End
					{
						OFFSET -0.000001 -0.000679 9.278119
						CHANNELS 6 Xposition Yposition Zposition Xrotation Yrotation Zrotation
						End Site
						{
							OFFSET 0.000000 -0.067690 927.812134
						}
					}
				}
			}
		}
	}
	JOINT mixamorig:LeftUpLeg
	{
		OFFSET 8.207793 -6.751686 -1.599556
		CHANNELS 6 Xposition Yposition Zposition Xrotation Yrotation Zrotation
		JOINT mixamorig:LeftLeg
		{
			OFFSET -0.000004 -44.370014 0.346954
			CHANNELS 6 Xposition Yposition Zposition Xrotation Yrotation Zrotation
			JOINT mixamorig:LeftFoot
			{
				OFFSET -0.000001 -44.423672 -3.044401
				CHANNELS 6 Xposition Yposition Zposition Xrotation Yrotation Zrotation
				JOINT mixamorig:LeftToeBase
				{
					OFFSET -0.000002 -8.728669 10.710558
					CHANNELS 6 Xposition Yposition Zposition Xrotation Yrotation Zrotation
					JOINT mixamorig:LeftToe_End
					{
						OFFSET -0.000003 -0.000679 9.278133
						CHANNELS 6 Xposition Yposition Zposition Xrotation Yrotation Zrotation
						End Site
						{
							OFFSET 0.000000 -0.068021 927.813477
						}
					}
				}
			}
		}
	}
}
MOTION
Frames: 3
Frame Time: 0.033333
0.000006 104.270477 1.554256 0.000010 0.000003 -0.000113 -0.000005 10.181587 0.131522 0.000001 -0.000003 0.000084 -0.000000 9.893967 -1.470711 0.000001 0.000000 -0.000000 -0.000000 9.220802 -1.370642 0.000000 -0.000000 -0.000000 0.000001 16.740433 -2.049030 0.000000 -0.000000 -0.000000 0.000000 9.617859 1.685014 0.000000 0.000000 0.000000 0.000002 22.037384 7.501101 0.000000 -0.000000 0.000000 -4.569968 11.014880 -2.160881 0.000008 0.000001 -0.000038 -10.592768 -0.524856 -2.231738 82.058535 66.366496 -59.285762 -27.841499 -0.000006 0.000567 50.131249 102.319376 -60.301841 -28.328829 0.000006 0.000013 -0.000314 -0.000044 0.000007 -2.464741 -1.574215 2.682047 111.399306 -166.624077 159.625346 -3.215117 -1.873013 1.924448 290.427430 -10.652477 -20.646163 -2.654846 -1.528211 1.512779 301.157329 2.525442 -15.634621 -2.018838 -1.152003 1.108066 -0.000001 -0.000002 0.000000 -9.108299 -0.517880 2.260378 237.778747 28.038936 -311.285953 -3.700030 -0.000011 0.001737 244.249204 28.806815 -315.517529 -2.850042 -0.000037 -0.000030 249.720185 22.558247 -328.045954 -2.772172 -0.000000 -0.000015 -0.000000 0.000004 0.000000 -9.532493 -0.000024 0.000538 225.388224 21.051758 -311.986130 -3.699997 0.000051 0.004284 228.777063 29.249264 -300.186814 -2.950009 -0.000007 -0.001500 233.388384 35.059597 -295.727001 -2.946624 -0.000012 -0.000154 0.000002 0.000000 -0.000000 -9.103534 -0.042946 -1.864535 211.959990 18.480301 -300.832513 -3.379261 0.000017 -0.000495 214.341103 1.911687 -353.772899 -2.889712 -0.000043 0.000905 225.208904 1.471694 3.628243 -2.638807 -0.000000 0.000929 -0.000000 0.000001 -0.000001 -8.076586 -0.486559 -3.805686 199.605872 12.071419 -297.259477 -3.599960 -0.000129 -0.003208 202.250753 -8.663762 -404.080821 -2.099948 -0.000108 -0.005214 210.118066 -6.033430 -23.036621 -2.115748 -0.000023 -0.003680 -0.000002 -0.000000 -0.000005 4.570446 11.014691 -2.160851 -0.000018 0.000010 -0.000021 10.592518 -0.524549 -2.232380 59.614827 -68.260603 42.443400 27.841774 -0.000055 -0.000126 213.975729 -77.964253 221.363207 28.328836 -0.000044 0.000025 0.000019 -0.000089 -0.000002 2.466034 -1.576193 2.681893 -18.494252 123.906448 -29.583130 3.217639 -1.872072 1.916561 153.394110 43.972133 -200.171507 2.655908 -1.528841 1.514609 177.959623 46.062649 127.266423 2.020884 -1.154052 1.115157 0.000003 0.000003 0.000002 9.109449 -0.517796 2.259850 147.493905 -15.716897 50.627575 3.700131 0.000187 -0.000365 139.903134 -20.044490 51.727410 2.850147 0.000245 0.000301 141.122705 -16.680492 45.112505 2.774877 -0.000031 -0.000028 -0.000002 -0.000002 0.000001 9.533516 0.000318 0.000017 148.160341 -10.102278 34.404134 3.700119 0.000260 -0.000255 143.901335 -13.303057 39.371656 2.950136 0.000237 -0.000099 144.070696 -15.552722 45.689075 2.952873 0.000000 0.000065 0.000001 -0.000001 0.000000 9.104633 -0.042711 -1.865100 151.150133 -8.959022 33.885835 3.150047 0.000358 0.000001 148.470172 -3.081997 10.892738 2.950065 0.000227 0.000040 153.878561 -8.308937 34.779364 2.644330 0.000014 0.000036 0.000002 -0.000002 -0.000002 8.077898 -0.486596 -3.806276 150.637746 -10.745645 41.696679 3.599934 0.000462 0.014725 162.555757 1.597605 -7.844251 2.100089 0.000340 0.007730 167.158320 -3.002936 30.536266 2.125497 -0.000016 0.007529 0.000001 0.000000 -0.000000 -8.207786 -6.751667 -1.599560 -0.077001 -0.000003 0.000080 -0.000002 -44.370110 0.345938 0.153719 -0.000000 -0.000000 0.000000 -44.423679 -3.043532 -0.076700 0.000000 -0.000002 -0.000006 -8.728667 10.710559 -0.000009 -0.000000 -0.000000 -0.000001 -0.000679 9.278123 0.000000 -0.000000 -0.000000 8.207792 -6.751710 -1.599556 -0.074518 -0.000003 0.000081 -0.000002 -44.370014 0.346960 0.148822 0.000002 0.000000 -0.000001 -44.423664 -3.044403 -0.074314 0.000000 -0.000002 -0.000004 -8.728671 10.710558 0.000007 -0.000000 -0.000000 0.000000 -0.000680 9.278137 -0.000000 0.000000 -0.000001 
0.000006 104.270477 1.554256 0.000010 0.000003 -0.000113 -0.000005 10.181587 0.131522 0.000001 -0.000003 0.000084 -0.000000 9.893967 -1.470711 0.000001 0.000000 -0.000000 -0.000000 9.220802 -1.370642 0.000000 -0.000000 -0.000000 0.000001 16.740433 -2.049030 0.000000 -0.000000 -0.000000 0.000000 9.617859 1.685014 0.000000 0.000000 0.000000 0.000002 22.037384 7.501101 0.000000 -0.000000 0.000000 -4.569968 11.014880 -2.160881 0.000008 0.000001 -0.000038 -10.592768 -0.524840 -2.231741 82.134295 66.042315 -59.047224 -27.841513 -0.000006 0.000566 51.072921 102.853428 -61.847281 -28.328821 0.000005 0.000021 -0.000321 -0.000044 0.000007 -2.464724 -1.574221 2.682046 110.933842 -162.783707 158.856185 -3.215086 -1.873019 1.924425 289.663979 -18.011257 -22.285828 -2.654823 -1.528192 1.512773 301.083208 -3.432330 -16.344986 -2.018845 -1.152018 1.108064 -0.000001 0.000000 -0.000003 -9.108317 -0.517913 2.260364 242.522423 27.148848 -316.600606 -3.700036 -0.000030 0.001746 246.817601 29.268068 -316.813680 -2.850053 -0.000031 -0.000018 248.034768 24.124225 -324.864807 -2.772165 0.000001 -0.000017 -0.000000 -0.000002 0.000001 -9.532519 -0.000062 0.000527 233.260960 17.581607 -325.596484 -3.700023 -0.000023 0.004272 235.693791 19.023598 -324.883357 -2.950002 -0.000040 -0.001515 232.415956 20.004980 -320.579464 -2.946622 0.000002 -0.000145 -0.000003 0.000001 -0.000001 -9.103581 -0.043037 -1.864552 222.286198 18.857944 -313.558576 -3.379286 -0.000033 -0.000505 221.862876 2.141773 -354.367290 -2.889720 -0.000021 0.000910 225.020719 1.784986 4.399505 -2.638825 -0.000016 0.000940 0.000001 0.000001 0.000000 -8.076637 -0.486588 -3.805694 207.659211 13.798609 -307.836407 -3.599982 -0.000168 -0.003210 210.937279 -6.781756 -385.507488 -2.099971 -0.000103 -0.005226 214.805775 -4.598249 -15.320358 -2.115781 -0.000037 -0.003680 0.000000 -0.000002 -0.000004 4.570446 11.014691 -2.160851 -0.000018 0.000010 -0.000021 10.592518 -0.524547 -2.232374 60.143265 -67.687468 42.438455 27.841778 -0.000056 -0.000116 214.826757 -77.081232 222.981511 28.328835 -0.000029 0.000023 0.000019 -0.000089 -0.000001 2.466027 -1.576192 2.681867 -22.171721 126.338801 -25.630095 3.217633 -1.872074 1.916555 153.920007 43.629763 -201.144768 2.655925 -1.528830 1.514613 179.641966 46.041721 125.028047 2.020892 -1.154058 1.115152 0.000003 0.000000 -0.000001 9.109472 -0.517810 2.259845 151.068307 -14.987839 53.986987 3.700105 0.000194 -0.000377 140.618528 -19.201038 50.643851 2.850140 0.000264 0.000319 142.832574 -17.009109 47.949687 2.774877 -0.000045 -0.000028 0.000000 -0.000003 0.000001 9.533519 0.000302 0.000020 150.375330 -10.226609 37.356664 3.700088 0.000246 -0.000280 142.450138 -12.979691 36.996082 2.950115 0.000249 -0.000097 141.941194 -15.863029 44.000994 2.952866 -0.000046 0.000050 0.000001 -0.000000 -0.000000 9.104646 -0.042737 -1.865106 153.213287 -9.136209 37.106184 3.150051 0.000379 -0.000007 147.247773 -2.728700 9.272748 2.950078 0.000246 0.000055 151.727653 -8.353970 32.348882 2.644324 0.000047 0.000055 -0.000003 -0.000002 0.000001 8.077912 -0.486598 -3.806283 152.773204 -10.916577 45.450240 3.599936 0.000449 0.014708 160.889368 1.402155 -5.951906 2.100077 0.000338 0.007730 163.806091 -3.219797 25.703955 2.125509 -0.000017 0.007521 -0.000002 -0.000001 0.000004 -8.207786 -6.751667 -1.599560 -0.077001 -0.000003 0.000080 -0.000002 -44.370110 0.345938 0.153719 -0.000000 -0.000000 0.000000 -44.423679 -3.043532 -0.076700 0.000000 -0.000002 -0.000006 -8.728667 10.710559 -0.000009 -0.000000 -0.000000 -0.000001 -0.000679 9.278123 0.000000 -0.000000 -0.000000 8.207792 -6.751710 -1.599556 -0.074518 -0.000003 0.000081 -0.000002 -44.370014 0.346960 0.148822 0.000002 0.000000 -0.000001 -44.423664 -3.044403 -0.074314 0.000000 -0.000002 -0.000004 -8.728671 10.710558 0.000007 -0.000000 -0.000000 0.000000 -0.000680 9.278137 -0.000000 0.000000 -0.000001 
0.000006 104.270477 1.554256 0.000010 0.000003 -0.000113 -0.000005 10.181587 0.131522 0.000001 -0.000003 0.000084 -0.000000 9.893967 -1.470711 0.000001 0.000000 -0.000000 -0.000000 9.220802 -1.370642 0.000000 -0.000000 -0.000000 0.000001 16.740433 -2.049030 0.000000 -0.000000 -0.000000 0.000000 9.617859 1.685014 0.000000 0.000000 0.000000 0.000002 22.037384 7.501101 0.000000 -0.000000 0.000000 -4.569968 11.014880 -2.160881 0.000008 0.000001 -0.000038 -10.592764 -0.524850 -2.231734 81.995629 67.171536 -59.986860 -27.841496 0.000031 0.000570 51.199358 102.705869 -61.857048 -28.328842 0.000021 0.000013 -0.000322 -0.000043 0.000006 -2.464769 -1.574172 2.682023 116.779064 -172.764936 162.285718 -3.215092 -1.873023 1.924440 293.491617 -15.642392 -20.340710 -2.654773 -1.528238 1.512772 297.334773 -10.239948 -18.421271 -2.018842 -1.152011 1.108067 -0.000004 -0.000003 0.000002 -9.108328 -0.517911 2.260355 244.898892 23.519540 -323.715368 -3.700024 -0.000035 0.001744 245.070684 24.727499 -322.085111 -2.850063 -0.000018 -0.000024 246.002541 20.197858 -329.328171 -2.772159 0.000001 -0.000018 -0.000001 -0.000001 -0.000002 -9.532532 -0.000119 0.000481 246.739600 18.217998 -332.533224 -3.700051 -0.000085 0.004222 250.473719 16.399129 -337.014156 -2.950038 -0.000083 -0.001545 248.120938 15.175307 -337.712174 -2.946627 0.000002 -0.000158 0.000000 -0.000002 0.000001 -9.103618 -0.043114 -1.864612 242.992777 17.807097 -331.349825 -3.379279 -0.000141 -0.000592 246.510816 3.897569 -354.038348 -2.889708 -0.000108 0.000833 247.465076 2.182461 3.326540 -2.638801 -0.000026 0.000936 -0.000001 -0.000000 -0.000000 -8.076678 -0.486712 -3.805739 226.488390 15.960805 -323.999913 -3.599997 -0.000137 -0.003227 231.357058 -0.143549 -360.955772 -2.099988 -0.000144 -0.005235 233.915620 -0.908249 -2.189952 -2.115792 -0.000042 -0.003670 -0.000003 -0.000000 -0.000003 4.570446 11.014691 -2.160851 -0.000018 0.000010 -0.000021 10.592523 -0.524547 -2.232377 59.880002 -68.663338 42.945139 27.841770 -0.000068 -0.000122 215.779022 -77.791169 223.612771 28.328835 -0.000028 0.000027 0.000024 -0.000089 -0.000001 2.466010 -1.576173 2.681874 -25.576046 127.412234 -21.264255 3.217605 -1.872052 1.916552 150.134347 42.801633 -195.378176 2.655897 -1.528819 1.514622 168.086366 44.545452 140.046404 2.020871 -1.154065 1.115144 0.000002 0.000001 0.000004 9.109457 -0.517834 2.259862 155.094485 -17.256715 68.937174 3.700132 0.000150 -0.000337 145.705816 -21.341140 62.877663 2.850173 0.000215 0.000334 146.986996 -18.435148 57.407330 2.774889 -0.000014 -0.000031 0.000002 -0.000002 0.000002 9.533534 0.000338 0.000025 152.541224 -11.613635 45.163116 3.700111 0.000263 -0.000251 145.868156 -14.575458 45.222119 2.950133 0.000217 -0.000092 145.838322 -16.140816 49.552483 2.952867 -0.000018 0.000076 0.000002 -0.000002 -0.000000 9.104651 -0.042709 -1.865096 152.911885 -10.462275 41.628207 3.150056 0.000366 0.000010 148.009175 -4.689178 16.263256 2.950064 0.000249 0.000025 152.942252 -8.883929 35.793302 2.644323 0.000039 0.000053 0.000001 -0.000002 0.000001 8.077921 -0.486598 -3.806293 146.405009 -14.163432 46.658689 3.600007 0.000409 0.014726 160.848674 -1.320661 10.535653 2.100092 0.000312 0.007726 165.771546 -4.070542 35.725052 2.125491 -0.000002 0.007509 0.000003 0.000003 -0.000001 -8.207786 -6.751667 -1.599560 -0.077001 -0.000003 0.000080 -0.000002 -44.370110 0.345938 0.153719 -0.000000 -0.000000 0.000000 -44.423679 -3.043532 -0.076700 0.000000 -0.000002 -0.000006 -8.728667 10.710559 -0.000009 -0.000000 -0.000000 -0.000001 -0.000679 9.278123 0.000000 -0.000000 -0.000000 8.207792 -6.751710 -1.599556 -0.074518 -0.000003 0.000081 -0.000002 -44.370014 0.346960 0.148822 0.000002 0.000000 -0.000001 -44.423664 -3.044403 -0.074314 0.000000 -0.000002 -0.000004 -8.728671 10.710558 0.000007 -0.000000 -0.000000 0.000000 -0.000680 9.278137 -0.000000 0.000000 -0.000001 
